HIERARCHY
ROOT hip
{
	OFFSET 0.000000 0.000000 0.000000 
	CHANNELS 6 Xposition Yposition Zposition Xrotation Zrotation Yrotation
	JOINT abdomen
	{
		OFFSET 0.000000 3.402643 0.000000 
		CHANNELS 3 Xrotation Zrotation Yrotation
		JOINT chest
		{
			OFFSET 0.000000 8.438565 -0.680529 
			CHANNELS 3 Xrotation Zrotation Yrotation
			JOINT neck
			{
				OFFSET 0.000000 10.207942 -0.272212 
				CHANNELS 3 Xrotation Zrotation Yrotation
				JOINT head
				{
					OFFSET 0.000000 3.130431 0.000000 
					CHANNELS 3 Xrotation Zrotation Yrotation
					End Site
					{
						OFFSET 0.000000 3.130435 0.000000 
					}
				}
			}
			JOINT lCollar
			{
				OFFSET 3.470700 6.669187 -0.816635 
				CHANNELS 3 Yrotation Zrotation Xrotation
				JOINT lShldr
				{
					OFFSET 3.198488 0.000000 0.000000 
					CHANNELS 3 Zrotation Yrotation Xrotation
					JOINT lForeArm
					{
						OFFSET 10.139888 0.000000 0.000000 
						CHANNELS 3 Yrotation Zrotation Xrotation
						JOINT lHand
						{
							OFFSET 8.370511 0.000000 0.000000 
							CHANNELS 3 Zrotation Yrotation Xrotation
							End Site
							{
								OFFSET 4.083176 0.000000 0.000000 
							}
						}
					}
				}
			}
			JOINT rCollar
			{
				OFFSET -3.470700 6.669187 -0.816635 
				CHANNELS 3 Yrotation Zrotation Xrotation
				JOINT rShldr
				{
					OFFSET -3.198488 0.000000 0.000000 
					CHANNELS 3 Zrotation Yrotation Xrotation
					JOINT rForeArm
					{
						OFFSET -10.139888 0.000000 0.000000 
						CHANNELS 3 Yrotation Zrotation Xrotation
						JOINT rHand
						{
							OFFSET -8.370511 0.000000 0.000000 
							CHANNELS 3 Zrotation Yrotation Xrotation
							End Site
							{
								OFFSET -4.083176 0.000000 0.000000 
							}
						}
					}
				}
			}
		}
	}
	JOINT lThigh
	{
		OFFSET 5.308129 -1.633274 1.361059 
		CHANNELS 3 Xrotation Zrotation Yrotation
		JOINT lShin
		{
			OFFSET -2.041588 -20.007561 0.000000 
			CHANNELS 3 Xrotation Zrotation Yrotation
			JOINT lFoot
			{
				OFFSET 0.000000 -19.190928 -1.224953 
				CHANNELS 3 Xrotation Yrotation Zrotation
				End Site
				{
					OFFSET 0.000000 -2.449906 4.627600 
				}
			}
		}
	}
	JOINT rThigh
	{
		OFFSET -5.308129 -1.633274 1.361059 
		CHANNELS 3 Xrotation Zrotation Yrotation
		JOINT rShin
		{
			OFFSET 2.041588 -20.007561 0.000000 
			CHANNELS 3 Xrotation Zrotation Yrotation
			JOINT rFoot
			{
				OFFSET 0.000000 -19.190928 -1.224953 
				CHANNELS 3 Xrotation Yrotation Zrotation
				End Site
				{
					OFFSET 0.000000 -2.449906 4.627600 
				}
			}
		}
	}
}
MOTION
Frames: 20
Frame Time: 0.033333
0.297197 37.534107 0.297197 -0.019531 0.000000 0.000000 12.977066 -2.711509 7.420395 0.000000 0.000000 0.000000 5.156250 -0.009766 0.000000 -11.474482 1.877463 -7.699155 1.992188 -2.001953 0.000341 -50.372231 45.782543 29.359243 -95.808441 1.579175 21.378628 21.171669 -57.321487 15.734148 -2.001953 1.992188 0.000000 65.288269 10.055343 -2.932077 95.300957 -1.612274 21.360357 -21.212509 57.305897 15.762873 -35.849586 2.723017 1.021128 41.828007 -0.699639 -3.266743 -11.531622 0.749832 -0.527048 26.593870 -3.300192 0.307014 44.581764 0.527000 3.337767 25.285643 -0.322849 2.360322 
0.297197 37.534107 -4.039462 -0.019531 0.000000 0.000000 13.931945 -2.487702 5.688817 0.000000 0.000000 0.000000 5.156250 -0.009766 0.000000 -12.340268 1.738543 -5.979135 1.992188 -2.001953 0.000341 -52.073948 44.779057 26.939611 -96.760612 1.582637 21.411543 21.009161 -57.427952 15.703438 -2.001953 1.992188 0.000000 64.866051 10.043600 -1.515204 95.817413 -1.614462 21.376972 -20.638483 57.529964 16.247730 -33.678001 2.694621 0.974088 36.771599 -0.949250 -3.000047 -10.185513 0.673858 -0.527406 23.751616 -3.270450 0.264011 56.556591 -0.156530 3.830713 20.073866 -0.480699 2.473298 
0.297197 37.534107 -8.376035 -0.019531 0.000000 0.000000 14.884356 -2.230973 3.967536 0.000000 0.000000 0.000000 5.156250 -0.009766 0.000000 -13.207053 1.626357 -4.259420 1.992188 -2.001953 0.000341 -53.691166 43.730446 24.590143 -97.713661 1.575263 21.446667 20.849543 -57.528374 15.688547 -2.001953 1.992188 0.000000 64.440681 10.027978 -0.087974 96.324173 -1.607039 21.394033 -20.069342 57.739918 16.728205 -31.496147 2.654980 0.938633 31.691801 -1.158353 -2.733372 -8.840230 0.582953 -0.554323 20.913544 -3.241987 0.221051 68.522713 -0.947621 4.188005 14.843048 -0.665156 2.569272 
0.297197 37.021667 -12.712777 -0.019531 0.000000 0.000000 16.116590 -1.960623 2.755300 0.000000 0.000000 0.000000 5.156250 -0.009766 0.000000 -14.395054 1.472511 -3.057638 1.992188 -2.001953 0.000341 -55.172680 41.761585 22.405125 -98.762207 1.569070 21.474083 20.730072 -57.599949 15.681106 -2.001953 1.992188 0.000000 64.120720 9.875289 0.621321 96.713943 -1.608973 21.416183 -19.706701 57.889214 17.042595 -29.028099 2.645827 0.872803 27.557102 -1.319368 -2.481551 -5.618377 0.498058 -0.602107 18.937387 -3.221365 0.205113 76.483612 -1.494762 4.308243 10.011792 -0.839717 2.613782 
0.297197 36.509262 -17.049259 -0.019531 0.000000 0.000000 17.337551 -1.669309 1.553213 0.000000 0.000000 0.000000 5.156250 -0.009766 0.000000 -15.570669 1.337189 -1.855875 1.992188 -2.001953 0.000341 -56.514416 39.761688 20.356663 -99.810936 1.562128 21.500574 20.595905 -57.675060 15.686962 -2.001953 1.992188 0.000000 63.804890 9.718490 1.329308 97.094025 -1.601205 21.419235 -19.327564 58.018917 17.367552 -26.569010 2.635988 0.798623 23.408276 -1.465451 -2.227372 -2.405534 0.411907 -0.633970 16.955860 -3.202079 0.188698 84.445496 -2.050980 4.350881 5.198860 -1.022233 2.642331 
0.297197 35.784046 -21.386126 -0.019531 0.000000 0.000000 18.528143 -1.367085 0.703158 0.000000 0.000000 0.000000 5.156250 -0.009766 0.000000 -16.748857 1.181466 -0.986521 1.992188 -2.001953 0.000341 -57.618629 37.274868 18.571581 -100.928566 1.549688 21.540083 20.531040 -57.714211 15.681961 -2.001953 1.992188 0.000000 63.639736 9.280392 1.659026 97.357132 -1.602651 21.427370 -19.149048 58.077991 17.537273 -23.800739 2.635602 0.736987 21.773691 -1.504345 -2.119252 -1.299326 0.410004 -0.678321 14.448998 -3.182849 0.138470 90.497375 -2.490878 4.356625 2.266405 -1.130236 2.655215 
0.297197 35.058865 -25.722818 -0.019531 0.000000 0.000000 19.719496 -1.054684 -0.146639 0.000000 0.000000 0.000000 5.156250 -0.009766 0.000000 -17.931982 1.035154 -0.126932 1.992188 -2.001953 0.000341 -58.594601 34.770496 16.906713 -102.049675 1.554851 21.580389 20.462997 -57.747356 15.672133 -2.001953 1.992188 0.000000 63.463631 8.844931 1.990023 97.620293 -1.594385 21.445274 -18.965206 58.139874 17.689886 -21.050726 2.626194 0.659503 20.126854 -1.562732 -2.012854 -0.185652 0.419178 -0.707659 11.942214 -3.163799 0.098022 96.552353 -2.920533 4.300636 -0.674509 -1.243449 2.650058 
0.297197 34.362648 -30.059454 -0.019531 0.000000 0.000000 20.606340 -0.751878 -0.810733 0.000000 0.000000 0.000000 5.156250 -0.009766 0.000000 -18.789740 0.888625 0.586019 1.992188 -2.001953 0.000341 -59.343704 32.259239 15.524945 -103.203133 1.532851 21.621868 20.432070 -57.770000 15.667992 -2.001953 1.992188 0.000000 63.479240 8.003750 2.245560 97.785950 -1.595356 21.447874 -18.953854 58.152065 17.703945 -17.570431 2.576341 0.578934 28.574547 -1.275635 -2.534105 -12.172645 0.865737 -0.563039 7.603636 -3.133762 0.015626 102.483009 -3.349689 4.198254 2.182385 -1.086741 2.732818 
0.297197 33.666466 -34.396084 -0.019531 0.000000 0.000000 21.476154 -0.439308 -1.474716 0.000000 0.000000 0.000000 5.156250 -0.009766 0.000000 -19.650831 0.761526 1.289208 1.992188 -2.001953 0.000341 -59.991920 29.725765 14.224687 -104.358971 1.529437 21.656712 20.422091 -57.788967 15.654565 -2.001953 1.992188 0.000000 63.488800 7.162580 2.500161 97.951546 -1.606112 21.450474 -18.912718 58.160633 17.733168 -14.081884 2.517329 0.467999 36.996113 -0.949636 -3.011539 -24.140118 1.296005 -0.300258 3.279841 -3.113997 -0.067693 108.446678 -3.760327 4.055888 5.024686 -0.942149 2.802254 
0.297197 33.357090 -38.732777 -0.019531 0.000000 0.000000 21.744812 -0.175660 -2.128926 0.000000 0.000000 0.000000 5.156250 -0.009766 0.000000 -19.917641 0.683181 1.992395 1.992188 -2.001953 0.000341 -60.447174 27.596872 13.189306 -105.512146 1.514856 21.696018 20.422091 -57.788967 15.654565 -2.001953 1.992188 0.000000 63.674267 5.806540 2.980660 98.029564 -1.596821 21.456867 -19.015802 58.129406 17.639647 -4.487884 2.487662 0.213536 31.732229 -1.182963 -2.683618 -28.437593 1.387870 -0.195535 -2.555210 -3.101475 -0.180804 112.480721 -4.022839 3.922791 6.322136 -0.880343 2.769393 
0.297197 33.047756 -43.069469 -0.019531 0.000000 0.000000 22.007437 0.087786 -2.792965 0.000000 0.000000 0.000000 5.156250 -0.009766 0.000000 -20.186268 0.604794 2.705237 1.992188 -2.001953 0.000341 -60.844925 25.448952 12.188304 -106.665016 1.499441 21.731913 20.425417 -57.782642 15.661795 -2.001953 1.992188 0.000000 63.843575 4.452262 3.461270 98.107521 -1.597299 21.453495 -19.118736 58.098129 17.554464 5.102829 2.498910 -0.080117 26.482609 -1.405926 -2.327853 -32.734081 1.511279 -0.066222 -8.386220 -3.094755 -0.284818 116.516235 -4.275761 3.787602 7.639331 -0.825045 2.743569 
0.297197 33.154140 -47.406101 -0.019531 0.000000 0.000000 21.465370 0.311922 -3.486330 0.000000 0.000000 0.000000 5.156250 -0.009766 0.000000 -19.644943 0.545891 3.437716 1.992188 -2.001953 0.000341 -61.086445 23.978523 11.541996 -107.787971 1.488736 21.766571 20.456350 -57.759998 15.665930 -2.001953 1.992188 0.000000 64.061501 2.472825 4.271415 98.127068 -1.587654 21.452650 -19.284975 58.033752 17.420349 10.412366 2.577347 -0.228249 21.636944 -1.560252 -2.014599 -29.587051 1.522875 -0.188041 -16.997345 -3.104778 -0.427167 117.816353 -4.345277 3.743909 -3.294335 -1.369606 2.423587 
0.297197 33.260544 -51.742741 -0.019531 0.000000 0.000000 20.918596 0.525941 -4.179780 0.000000 0.000000 0.000000 5.156250 -0.009766 0.000000 -19.116383 0.467515 4.160336 1.992188 -2.001953 0.000341 -61.312675 22.507727 10.906187 -108.919716 1.473393 21.810112 20.490374 -57.743408 15.666702 -2.001953 1.992188 0.000000 64.265160 0.486537 5.068093 98.146561 -1.587774 21.451807 -19.452263 57.963009 17.270992 15.705440 2.655753 -0.361520 16.790846 -1.685261 -1.707238 -26.410471 1.527618 -0.311917 -25.611494 -3.134012 -0.582240 119.116753 -4.432135 3.685000 -14.272389 -1.825924 2.004755 
0.297197 33.589252 -56.079433 -0.019531 0.000000 0.000000 19.783092 0.720106 -4.814809 0.000000 0.000000 0.000000 5.156250 -0.009766 0.000000 -17.999363 0.330850 4.834073 1.992188 -2.001953 0.000341 -61.480618 21.545063 10.589897 -109.973991 1.455955 21.833456 20.542196 -57.717098 15.661585 -2.001953 1.992188 0.000000 64.369987 -1.911905 6.008193 98.127068 -1.587654 21.452650 -19.689537 57.886948 17.060980 15.365165 2.616977 -0.362118 22.821447 -1.531521 -2.101420 -21.076260 1.647760 -0.481116 -33.551247 -3.192909 -0.706000 116.779778 -4.295291 3.785591 -23.456898 -2.044537 1.532152 
0.297197 33.917980 -60.416122 -0.019531 0.000000 0.000000 18.644215 0.904098 -5.449771 0.000000 0.000000 0.000000 5.156250 -0.009766 0.000000 -16.876785 0.184696 5.488316 1.992188 -2.001953 0.000341 -61.638878 20.576784 10.287749 -111.036018 1.444115 21.864920 20.582817 -57.687920 15.676867 -2.001953 1.992188 0.000000 64.447922 -4.298655 6.953332 98.097717 -1.607004 21.444155 -19.904085 57.811329 16.877169 15.021726 2.548041 -0.338385 28.838516 -1.324094 -2.500869 -15.744164 1.753003 -0.629735 -41.475491 -3.251064 -0.834588 114.454102 -4.148889 3.862245 -32.681820 -2.201383 1.025525 
0.297197 34.382103 -64.752747 -0.019531 0.000000 0.000000 17.222597 1.058610 -6.006815 0.000000 0.000000 0.000000 5.156250 -0.009766 0.000000 -15.487247 0.009711 6.074220 1.992188 -2.001953 0.000341 -61.784191 19.948818 10.168952 -112.012428 1.428833 21.894892 20.644482 -57.642712 15.685263 -2.001953 1.992188 0.000000 64.414764 -6.763214 7.907997 98.048988 -1.606705 21.446259 -20.142681 57.718132 16.675766 15.909436 2.567621 -0.350087 30.950586 -1.236567 -2.618285 -1.642166 1.560902 -1.136055 -45.264099 -3.290301 -0.871205 105.986984 -3.582993 4.116691 -24.712273 -1.899777 1.129653 
0.297197 34.846222 -69.089386 -0.019531 0.000000 0.000000 15.809762 1.193277 -6.573681 0.000000 0.000000 0.000000 5.156250 -0.009766 0.000000 -14.083988 -0.184298 6.650419 1.992188 -2.001953 0.000341 -61.914101 19.322771 10.068235 -112.984642 1.413870 21.921707 20.705910 -57.609921 15.683108 -2.001953 1.992188 0.000000 64.341042 -9.224977 8.875849 97.990585 -1.596583 21.448786 -20.380205 57.624611 16.474577 16.804508 2.597948 -0.360008 33.070118 -1.157481 -2.765190 12.442225 1.268943 -1.566511 -49.070847 -3.329862 -0.910945 97.536980 -2.988106 4.300089 -16.733692 -1.594365 1.201956 
0.297197 35.281368 -73.426079 -0.019531 0.000000 0.000000 14.412272 1.279340 -7.042740 0.000000 0.000000 0.000000 5.156250 -0.009766 0.000000 -12.703451 -0.377923 7.119242 1.992188 -2.001953 0.000341 -62.021320 18.799837 10.099239 -113.835564 1.401464 21.954449 20.784960 -57.567394 15.675112 -2.001953 1.992188 0.000000 64.173386 -11.411078 9.756797 97.932121 -1.596229 21.441549 -20.570410 57.548969 16.308985 22.650717 2.695261 -0.516170 24.925083 -1.459701 -2.276720 16.935923 1.098376 -1.629138 -50.018116 -3.339350 -0.944967 86.909607 -2.245884 4.376122 -6.515372 -1.205002 1.320277 
0.297197 35.716507 -77.762764 -0.019531 0.000000 0.000000 13.014642 1.355458 -7.511811 0.000000 0.000000 0.000000 5.156250 -0.009766 0.000000 -11.327374 -0.580806 7.588191 1.992188 -2.001953 0.000341 -62.126102 18.276571 10.128045 -114.679520 1.390937 21.980759 20.849543 -57.528374 15.688547 -2.001953 1.992188 0.000000 63.972603 -13.595798 10.651357 97.873650 -1.595878 21.444078 -20.795502 57.467197 16.113894 28.489208 2.802849 -0.665420 16.777580 -1.713906 -1.729789 21.442284 0.940388 -1.645943 -50.956249 -3.349473 -0.968903 76.297050 -1.503598 4.323154 3.707999 -0.798692 1.377193 
0.297197 36.074245 -82.099396 -0.019531 0.000000 0.000000 11.936290 1.392999 -7.873263 0.000000 0.000000 0.000000 5.156250 -0.009766 0.000000 -10.267187 -0.725401 7.940049 1.992188 -2.001953 0.000341 -62.267124 17.763288 9.984402 -115.365311 1.374169 21.999907 20.910894 -57.483276 15.688891 -2.001953 1.992188 0.000000 63.786495 -15.138600 11.343051 97.824928 -1.595587 21.436419 -20.938328 57.409412 15.992167 28.742912 2.812610 -0.675378 19.046373 -1.656281 -1.862843 22.567406 0.902329 -1.742612 -48.424053 -3.319955 -0.920697 66.622833 -0.819236 4.141299 3.790069 -0.695513 1.309577 
